0
SECTION
2
HEADER
9
$INSUNITS
70
4
9
$ACADVER
1
AC1014
9
$HANDSEED
5
FFFF
0
ENDSEC
0
SECTION
2
TABLES
0
TABLE
2
VPORT
5
8
100
AcDbSymbolTable
0
ENDTAB
0
TABLE
2
LTYPE
5
5
100
AcDbSymbolTable
0
LTYPE
5
14
100
AcDbSymbolTableRecord
100
AcDbLinetypeTableRecord
2
BYBLOCK
70
0
0
LTYPE
5
15
100
AcDbSymbolTableRecord
100
AcDbLinetypeTableRecord
2
BYLAYER
70
0
0
ENDTAB
0
TABLE
2
LAYER
5
2
100
AcDbSymbolTable
70
2
0
LAYER
5
50
100
AcDbSymbolTableRecord
100
AcDbLayerTableRecord
2
0
70
0
6
CONTINUOUS
0
ENDTAB
0
TABLE
2
STYLE
5
3
100
AcDbSymbolTable
70
1
0
STYLE
5
11
100
AcDbSymbolTableRecord
100
AcDbTextStyleTableRecord
2
STANDARD
70
0
0
ENDTAB
0
TABLE
2
VIEW
5
6
100
AcDbSymbolTable
70
0
0
ENDTAB
0
TABLE
2
UCS
5
7
100
AcDbSymbolTable
70
0
0
ENDTAB
0
TABLE
2
APPID
5
9
100
AcDbSymbolTable
70
2
0
APPID
5
12
100
AcDbSymbolTableRecord
100
AcDbRegAppTableRecord
2
ACAD
70
0
0
ENDTAB
0
TABLE
2
DIMSTYLE
5
A
100
AcDbSymbolTable
70
1
0
ENDTAB
0
TABLE
2
BLOCK_RECORD
5
1
100
AcDbSymbolTable
70
1
0
BLOCK_RECORD
5
1F
100
AcDbSymbolTableRecord
100
AcDbBlockTableRecord
2
*MODEL_SPACE
0
BLOCK_RECORD
5
1B
100
AcDbSymbolTableRecord
100
AcDbBlockTableRecord
2
*PAPER_SPACE
0
ENDTAB
0
ENDSEC
0
SECTION
2
BLOCKS
0
BLOCK
5
20
100
AcDbEntity
100
AcDbBlockBegin
2
*MODEL_SPACE
0
ENDBLK
5
21
100
AcDbEntity
100
AcDbBlockEnd
0
BLOCK
5
1C
100
AcDbEntity
100
AcDbBlockBegin
2
*PAPER_SPACE
0
ENDBLK
5
1D
100
AcDbEntity
100
AcDbBlockEnd
0
ENDSEC
0
SECTION
2
ENTITIES
0
CIRCLE
5
100
100
AcDbEntity
8
0
100
AcDbCircle
10
-381.19101153791451
20
264.00839219799093
30
0
40
5
0
CIRCLE
5
101
100
AcDbEntity
8
0
100
AcDbCircle
10
-381.19101153791451
20
284.00839219799093
30
0
40
5
0
CIRCLE
5
102
100
AcDbEntity
8
0
100
AcDbCircle
10
-391.16813782702616
20
274.17258158395288
30
0
40
5.0194060823696418
0
CIRCLE
5
103
100
AcDbEntity
8
0
100
AcDbCircle
10
-371.21366612371833
20
274.17258158395288
30
0
40
5
0
LWPOLYLINE
5
104
100
AcDbEntity
8
0
100
AcDbPolyline
90
50
70
1
43
0.0
10
-575.52081717179385
20
190.51141634860772
10
-571.19069015287187
20
188.01141634860784
10
-571.1904566987439
20
249.17258158377649
10
-564.94090197536991
20
255.42258158391022
10
-563.64680674985732
20
250.59295245246489
10
-547.61127284392455
20
266.62848635839259
10
-552.4409019753698
20
267.92258158390518
10
-546.19090197537241
20
274.17258158390018
10
-485.02973674007012
20
274.17279340644563
10
-487.52973674006995
20
269.84266638752354
10
-464.85206721040987
20
269.84266638751984
10
-467.35206721040987
20
274.17279340644194
10
-406.19090197537241
20
274.17258158394498
10
-399.94090197537474
20
280.42258158395794
10
-404.77053110682004
20
281.71667680947058
10
-388.73499720088728
20
297.75221071539823
10
-387.44090197537474
20
292.92258158395293
10
-381.19090197537219
20
299.17258158395293
10
-374.9409019753673
20
292.92258158394543
10
-373.64680674985465
20
297.75221071539073
10
-357.611272843927
20
281.71667680945797
10
-362.4409019753723
20
280.42258158394537
10
-356.1909019753723
20
274.17258158394282
10
-362.4409019753698
20
267.92258158394782
10
-357.61127284392444
20
266.62848635843523
10
-373.64680674985726
20
250.59295245250752
10
-374.94090197536985
20
255.42258158395285
10
-381.1904566987439
20
249.17258158381912
10
-381.19069015287175
20
188.01141634865047
10
-385.52081717179385
20
190.51141634865036
10
-385.52081717179755
20
167.83374681899033
10
-381.19069015287545
20
170.33374681899028
10
-381.19090197537241
20
109.17258158395282
10
-387.44090197537497
20
102.92258158395285
10
-388.73499720088751
20
107.75221071539818
10
-404.77053110682027
20
91.716676809470528
10
-399.94090197537497
20
90.422581583957893
10
-406.19090197537241
20
84.172581583962938
10
-467.3520672104097
20
84.172793406449841
10
-464.8520672104097
20
79.842666387527743
10
-487.52973674006972
20
79.842666387531438
10
-485.02973674006989
20
84.172793406453536
10
-546.19090197523849
20
84.173026860581388
10
-552.44134725201104
20
90.422581584046426
10
-547.61171812056568
20
91.71667680955899
10
-563.64725202649322
20
107.75221071549183
10
-564.94134725200593
20
102.9225815840465
10
-571.19090197537253
20
109.17258158391019
10
-571.1906901528755
20
170.33374681894765
10
-575.5208171717976
20
167.8337468189477
0
LINE
5
105
100
AcDbEntity
8
0
100
AcDbLine
10
-546.19090197523849
20
84.173026860581388
30
0
11
-485.02973674006989
21
84.172793406453536
31
0
0
CIRCLE
5
106
100
AcDbEntity
8
0
100
AcDbCircle
10
-381.19101153791451
20
264.00839219799093
30
0
40
5
0
CIRCLE
5
107
100
AcDbEntity
8
0
100
AcDbCircle
10
-381.19101153791451
20
284.00839219799093
30
0
40
5
0
CIRCLE
5
108
100
AcDbEntity
8
0
100
AcDbCircle
10
-391.16813782702616
20
274.17258158395288
30
0
40
5.0194060823696418
0
CIRCLE
5
109
100
AcDbEntity
8
0
100
AcDbCircle
10
-371.21366612371833
20
274.17258158395288
30
0
40
5
0
LWPOLYLINE
5
110
100
AcDbEntity
8
0
100
AcDbPolyline
90
50
70
1
43
0.0
10
-571.19069015287187
20
188.01141634860784
10
-575.52081717179385
20
190.51141634860772
10
-575.5208171717976
20
167.8337468189477
10
-571.1906901528755
20
170.33374681894765
10
-571.19090197537253
20
109.17258158391019
10
-564.94134725200593
20
102.9225815840465
10
-563.64725202649322
20
107.75221071549183
10
-547.61171812056568
20
91.71667680955899
10
-552.44134725201104
20
90.422581584046426
10
-546.19090197523849
20
84.173026860581388
10
-485.02973674006989
20
84.172793406453536
10
-487.52973674006972
20
79.842666387531438
10
-464.8520672104097
20
79.842666387527743
10
-467.3520672104097
20
84.172793406449841
10
-406.19090197537241
20
84.172581583962938
10
-399.94090197537497
20
90.422581583957893
10
-404.77053110682027
20
91.716676809470528
10
-388.73499720088751
20
107.75221071539818
10
-387.44090197537497
20
102.92258158395285
10
-381.19090197537241
20
109.17258158395282
10
-381.19069015287545
20
170.33374681899028
10
-385.52081717179755
20
167.83374681899033
10
-385.52081717179385
20
190.51141634865036
10
-381.19069015287175
20
188.01141634865047
10
-381.1904566987439
20
249.17258158381912
10
-374.94090197536985
20
255.42258158395285
10
-373.64680674985726
20
250.59295245250752
10
-357.61127284392444
20
266.62848635843523
10
-362.4409019753698
20
267.92258158394782
10
-356.1909019753723
20
274.17258158394282
10
-362.4409019753723
20
280.42258158394537
10
-357.611272843927
20
281.71667680945797
10
-373.64680674985465
20
297.75221071539073
10
-374.9409019753673
20
292.92258158394543
10
-381.19090197537219
20
299.17258158395293
10
-387.44090197537474
20
292.92258158395293
10
-388.73499720088728
20
297.75221071539823
10
-404.77053110682004
20
281.71667680947058
10
-399.94090197537474
20
280.42258158395794
10
-406.19090197537241
20
274.17258158394498
10
-467.35206721040987
20
274.17279340644194
10
-464.85206721040987
20
269.84266638751984
10
-487.52973674006995
20
269.84266638752354
10
-485.02973674007012
20
274.17279340644563
10
-546.19090197537241
20
274.17258158390018
10
-552.4409019753698
20
267.92258158390518
10
-547.61127284392455
20
266.62848635839259
10
-563.64680674985732
20
250.59295245246489
10
-564.94090197536991
20
255.42258158391022
10
-571.1904566987439
20
249.17258158377649
0
CIRCLE
5
111
100
AcDbEntity
8
0
100
AcDbCircle
10
-571.19101153791451
20
264.00839219799093
30
0
40
5
0
CIRCLE
5
112
100
AcDbEntity
8
0
100
AcDbCircle
10
-571.19101153791451
20
284.00839219799093
30
0
40
5
0
CIRCLE
5
113
100
AcDbEntity
8
0
100
AcDbCircle
10
-581.16813782702616
20
274.17258158395288
30
0
40
5.0194060823696418
0
CIRCLE
5
114
100
AcDbEntity
8
0
100
AcDbCircle
10
-561.21366612371833
20
274.17258158395288
30
0
40
5
0
LWPOLYLINE
5
115
100
AcDbEntity
8
0
100
AcDbPolyline
90
50
70
1
43
0.0
10
-765.52081717179385
20
190.51141634860772
10
-761.19069015287187
20
188.01141634860784
10
-761.1904566987439
20
249.17258158377649
10
-754.94090197536991
20
255.42258158391022
10
-753.64680674985732
20
250.59295245246489
10
-737.61127284392444
20
266.62848635839259
10
-742.44090197536991
20
267.92258158390518
10
-736.19090197537253
20
274.17258158390018
10
-675.02973674007012
20
274.17279340644563
10
-677.52973674006989
20
269.84266638752354
10
-654.85206721040981
20
269.84266638751984
10
-657.35206721040981
20
274.17279340644194
10
-596.19090197537241
20
274.17258158394498
10
-589.9409019753748
20
280.42258158395794
10
-594.77053110682004
20
281.71667680947058
10
-578.73499720088728
20
297.75221071539823
10
-577.4409019753748
20
292.92258158395293
10
-571.19090197537219
20
299.17258158395293
10
-564.9409019753673
20
292.92258158394543
10
-563.6468067498547
20
297.75221071539073
10
-547.61127284392705
20
281.71667680945797
10
-552.4409019753723
20
280.42258158394537
10
-546.1909019753723
20
274.17258158394282
10
-552.4409019753698
20
267.92258158394782
10
-547.61127284392444
20
266.62848635843523
10
-563.64680674985732
20
250.59295245250752
10
-564.9409019753698
20
255.42258158395285
10
-571.1904566987439
20
249.17258158381912
10
-571.19069015287175
20
188.01141634865047
10
-575.52081717179385
20
190.51141634865036
10
-575.52081717179749
20
167.83374681899033
10
-571.19069015287539
20
170.33374681899028
10
-571.19090197537241
20
109.17258158395282
10
-577.44090197537491
20
102.92258158395285
10
-578.73499720088751
20
107.75221071539818
10
-594.77053110682027
20
91.716676809470528
10
-589.94090197537491
20
90.422581583957893
10
-596.19090197537241
20
84.172581583962938
10
-657.3520672104097
20
84.172793406449841
10
-654.8520672104097
20
79.842666387527743
10
-677.52973674006967
20
79.842666387531438
10
-675.02973674006989
20
84.172793406453536
10
-736.1909019752386
20
84.173026860581388
10
-742.44134725201093
20
90.422581584046426
10
-737.61171812056568
20
91.71667680955899
10
-753.64725202649322
20
107.75221071549183
10
-754.94134725200593
20
102.9225815840465
10
-761.19090197537253
20
109.17258158391019
10
-761.1906901528755
20
170.33374681894765
10
-765.5208171717976
20
167.8337468189477
0
CIRCLE
5
116
100
AcDbEntity
8
0
100
AcDbCircle
10
-486.16813782702593
20
179.17258158395288
30
0
40
5.0194060823696418
0
CIRCLE
5
117
100
AcDbEntity
8
0
100
AcDbCircle
10
-466.21366612371816
20
179.17258158395288
30
0
40
5
0
CIRCLE
5
118
100
AcDbEntity
8
0
100
AcDbCircle
10
-476.19101153791433
20
169.00839219799099
30
0
40
5
0
CIRCLE
5
119
100
AcDbEntity
8
0
100
AcDbCircle
10
-476.19101153791433
20
189.00839219799096
30
0
40
5
0
CIRCLE
5
120
100
AcDbEntity
8
0
100
AcDbCircle
10
-486.16813782702593
20
179.17258158395288
30
0
40
5.0194060823696418
0
CIRCLE
5
121
100
AcDbEntity
8
0
100
AcDbCircle
10
-466.21366612371816
20
179.17258158395288
30
0
40
5
0
CIRCLE
5
122
100
AcDbEntity
8
0
100
AcDbCircle
10
-476.19101153791433
20
169.00839219799099
30
0
40
5
0
CIRCLE
5
123
100
AcDbEntity
8
0
100
AcDbCircle
10
-476.19101153791433
20
189.00839219799096
30
0
40
5
0
CIRCLE
5
124
100
AcDbEntity
8
0
100
AcDbCircle
10
-676.16813782702593
20
179.17258158395288
30
0
40
5.0194060823696418
0
CIRCLE
5
125
100
AcDbEntity
8
0
100
AcDbCircle
10
-656.21366612371821
20
179.17258158395288
30
0
40
5
0
CIRCLE
5
126
100
AcDbEntity
8
0
100
AcDbCircle
10
-666.19101153791439
20
169.00839219799099
30
0
40
5
0
CIRCLE
5
127
100
AcDbEntity
8
0
100
AcDbCircle
10
-666.19101153791439
20
189.00839219799096
30
0
40
5
0
ENDSEC
0
SECTION
2
OBJECTS
0
DICTIONARY
5
C
100
AcDbDictionary
3
ACAD_GROUP
350
D
3
ACAD_MLINESTYLE
350
17
0
DICTIONARY
5
D
100
AcDbDictionary
0
DICTIONARY
5
1A
330
C
100
AcDbDictionary
0
DICTIONARY
5
17
100
AcDbDictionary
0
ENDSEC
0
EOF
